<svg width="38" height="33" viewBox="0 0 38 33" fill="none" xmlns="http://www.w3.org/2000/svg">
<path d="M37.8039 18.8596C37.6468 18.6593 37.408 18.5236 37.14 18.4821C36.8719 18.4406 36.5966 18.4969 36.3746 18.6385C35.0222 19.5045 33.4355 20.0247 31.7823 20.144C31.8131 18.4687 31.3868 16.8123 30.5409 15.3207L30.539 15.3181C32.0824 14.7049 33.4445 13.7734 34.5158 12.5985C34.6021 12.5049 34.6671 12.3968 34.7071 12.2805C34.747 12.1642 34.7611 12.0419 34.7485 11.9206C34.7359 11.7994 34.6969 11.6816 34.6338 11.574C34.5706 11.4663 34.4845 11.371 34.3804 11.2935C34.2763 11.216 34.1562 11.1578 34.0271 11.1222C33.898 11.0866 33.7624 11.0744 33.628 11.0863C33.4937 11.0981 33.3632 11.1337 33.2442 11.1911C33.1251 11.2486 33.0198 11.3266 32.9343 11.4208C31.9747 12.4716 30.7314 13.2819 29.3241 13.7736C28.6733 13.1354 27.914 12.5948 27.0747 12.172C26.4317 11.8469 25.7549 11.5793 25.0542 11.373H25.0523C23.2212 10.8562 21.3098 10.6081 19.3914 10.6382C14.7474 10.6382 11.3149 11.7936 9.25514 13.9811L9.25441 13.982C9.20395 13.9568 9.15122 13.9354 9.09678 13.9182C7.51646 13.4446 6.11598 12.579 5.05579 11.4207C4.97017 11.3267 4.86483 11.2488 4.74582 11.1916C4.6268 11.1344 4.49644 11.0989 4.3622 11.0872C4.22797 11.0755 4.09249 11.0878 3.96353 11.1235C3.83458 11.1591 3.71467 11.2173 3.61069 11.2947C3.50671 11.3722 3.4207 11.4674 3.35757 11.5749C3.29444 11.6824 3.25545 11.8001 3.24282 11.9212C3.23019 12.0424 3.24418 12.1645 3.28397 12.2808C3.32377 12.397 3.3886 12.505 3.47474 12.5986C4.69874 13.9393 6.29731 14.9609 8.10535 15.558L8.10159 15.5639C7.34698 17.0042 6.96968 18.5818 6.99887 20.1746C5.07082 20.181 3.1887 19.644 1.61549 18.6385C1.39343 18.4975 1.11843 18.4417 0.850836 18.4834C0.583243 18.5251 0.344912 18.6609 0.188137 18.8609C0.0313616 19.0609 -0.0310521 19.3088 0.0145918 19.5503C0.0602356 19.7918 0.210209 20.0071 0.431603 20.1489C2.34847 21.3716 4.63834 22.0284 6.98603 22.0287C7.02906 22.0287 7.07193 22.0281 7.11488 22.0277C7.30597 23.4686 7.74698 24.8734 8.42178 26.1907C8.45174 26.2498 8.4817 26.3089 8.51351 26.3681L8.51602 26.3723C8.42252 26.3782 8.33036 26.3956 8.24217 26.4242C7.53093 26.6662 6.77041 26.7679 6.01192 26.7223C5.25343 26.6767 4.51461 26.4849 3.84527 26.1598C3.72664 26.1023 3.59662 26.0665 3.46265 26.0544C3.32867 26.0423 3.19336 26.0541 3.06444 26.0891C2.93552 26.1242 2.81552 26.1818 2.71128 26.2587C2.60704 26.3356 2.52061 26.4302 2.45692 26.5372C2.39323 26.6442 2.35353 26.7615 2.34009 26.8824C2.32665 27.0032 2.33973 27.1253 2.37858 27.2416C2.41743 27.3579 2.4813 27.4661 2.56653 27.5602C2.65176 27.6542 2.75668 27.7322 2.87532 27.7896C3.85209 28.2616 4.93354 28.5304 6.04044 28.5765C6.15032 28.5808 6.25991 28.5829 6.36919 28.5829C7.25554 28.583 8.13458 28.4383 8.96382 28.156C9.15031 28.0926 9.31213 27.9814 9.4293 27.836C9.43736 27.8476 9.44608 27.8589 9.45542 27.8698C11.7157 30.9813 15.3279 32.9999 19.3914 32.9999C21.3213 32.9668 23.2133 32.5104 24.9039 31.6701C26.5945 30.8299 28.0331 29.6311 29.0952 28.1772L29.0959 28.1762C29.9047 28.4446 30.7595 28.5822 31.6212 28.5829C31.7306 28.5829 31.8402 28.5808 31.9502 28.5765C33.057 28.5304 34.1383 28.2616 35.115 27.7898C35.2336 27.7324 35.3386 27.6544 35.4238 27.5604C35.5091 27.4664 35.573 27.3581 35.6119 27.2418C35.6508 27.1255 35.6639 27.0035 35.6505 26.8826C35.6371 26.7617 35.5974 26.6445 35.5337 26.5374C35.4701 26.4304 35.3836 26.3357 35.2794 26.2588C35.1752 26.1819 35.0552 26.1242 34.9263 26.0892C34.7973 26.0541 34.662 26.0423 34.528 26.0543C34.3941 26.0664 34.264 26.1022 34.1454 26.1597C33.44 26.5005 32.6591 26.6948 31.8597 26.7282C31.2891 26.7504 30.7183 26.6888 30.1695 26.546C30.9551 25.1232 31.4621 23.5886 31.6682 22.0099L31.6684 22.0061C33.7865 21.8992 35.8282 21.2555 37.5589 20.1489C37.7809 20.0072 37.9314 19.7918 37.9773 19.55C38.0233 19.3082 37.9609 19.0599 37.8039 18.8596ZM19.3914 31.1502C15.9065 31.1502 12.8187 29.3293 10.9423 26.5438C10.5691 25.987 10.249 25.4027 9.98541 24.7971C9.36032 23.3552 9.04203 21.82 9.04719 20.2718C9.04719 15.1078 12.5284 12.4895 19.3914 12.4895C20.7335 12.4753 22.073 12.5995 23.3839 12.8595C24.1305 13.0115 24.8564 13.2369 25.5485 13.5318C28.3312 14.7396 29.7337 16.993 29.7337 20.2718C29.7337 26.2701 25.0935 31.1502 19.3914 31.1502Z" fill="url(#paint0_linear_152_179158)"/>
<path d="M11.9385 10.189C12.2713 10.1891 12.6013 10.1341 12.9122 10.0268C14.9105 9.3902 17.0196 9.08349 19.1385 9.12137C21.2574 9.0835 23.3666 9.3902 25.365 10.0268C25.7711 10.1653 26.2081 10.2145 26.6395 10.1702C27.071 10.1259 27.4845 9.98935 27.8457 9.77199C28.207 9.55464 28.5056 9.26269 28.7167 8.92039C28.9278 8.57809 29.0454 8.19531 29.0596 7.80381C29.0691 7.54003 29.0317 7.27658 28.9491 7.02341C28.4824 5.54788 27.7341 4.15709 26.7376 2.91354C25.8336 1.77815 24.6733 0.828266 23.3332 0.126347C23.191 0.0542482 23.0319 0.0137531 22.869 0.00822049C22.706 0.00268791 22.544 0.0322769 22.3962 0.094534C22.2485 0.156791 22.1193 0.249923 22.0195 0.366205C21.9196 0.482486 21.8519 0.618568 21.822 0.763165C21.5299 2.17367 20.4044 3.19902 19.148 3.19902C17.8877 3.19902 16.7623 2.17198 16.4721 0.756442C16.4423 0.611909 16.3749 0.475844 16.2752 0.359522C16.1756 0.2432 16.0467 0.149968 15.8991 0.0875496C15.7516 0.0251313 15.5897 -0.00467703 15.4268 0.000595355C15.264 0.00586775 15.1049 0.0460686 14.9627 0.117867C12.3748 1.42535 10.3224 3.94227 9.32806 7.02341C9.18321 7.46553 9.17872 7.93545 9.3151 8.37976C9.45148 8.82408 9.72327 9.22498 10.0996 9.53694C10.5994 9.95576 11.2563 10.1887 11.9385 10.189ZM11.298 7.54025C11.8912 5.52906 13.1492 3.72847 14.9046 2.37805C15.2543 3.1429 15.8401 3.80113 16.5923 4.27453C17.3445 4.74794 18.2315 5.01663 19.148 5.04868C20.065 5.02563 20.9547 4.76204 21.7083 4.29015C22.4618 3.81825 23.0467 3.1585 23.3912 2.39157C25.1374 3.74087 26.3891 5.53607 26.981 7.54025C27.02 7.65205 27.0223 7.77162 26.9878 7.88461C26.9532 7.99759 26.8832 8.09916 26.7862 8.17711C26.6958 8.25574 26.582 8.30895 26.4586 8.33024C26.3352 8.35153 26.2077 8.33999 26.0914 8.29703C23.8611 7.58066 21.5057 7.23331 19.1385 7.27168C16.7714 7.23347 14.416 7.58082 12.1856 8.29703C12.0693 8.33972 11.9419 8.35111 11.8186 8.32983C11.6953 8.30855 11.5815 8.2555 11.4909 8.17711C11.3939 8.09919 11.324 7.99754 11.2897 7.8845C11.2555 7.77145 11.2584 7.65185 11.298 7.54025Z" fill="#4A6CF7"/>
<defs>
<linearGradient id="paint0_linear_152_179158" x1="18.996" y1="10.6357" x2="18.996" y2="32.9999" gradientUnits="userSpaceOnUse">
<stop stop-color="#4A6CF7"/>
<stop offset="1" stop-color="#13C296"/>
</linearGradient>
</defs>
</svg>
