<svg width="177" height="33" viewBox="0 0 177 33" fill="none" xmlns="http://www.w3.org/2000/svg">
<path d="M52.0079 23.8719V12.5278H54.3157V23.8719H52.0079ZM53.1441 8C53.5582 8 53.9016 8.12204 54.1745 8.36613C54.4474 8.61022 54.5839 8.91737 54.5839 9.28757C54.5839 9.66184 54.4474 9.96898 54.1745 10.209C53.9016 10.4531 53.5582 10.5751 53.1441 10.5751C52.7348 10.5751 52.3937 10.4531 52.1208 10.209C51.8479 9.96898 51.7115 9.66184 51.7115 9.28757C51.7115 8.91737 51.8479 8.61022 52.1208 8.36613C52.3937 8.12204 52.7348 8 53.1441 8ZM69.1717 11.9908C68.3578 11.5474 67.5179 11.2159 66.6522 10.9962C65.7818 10.7724 64.9843 10.6606 64.2597 10.6606C63.2481 10.6606 62.4412 10.8294 61.839 11.167C61.2367 11.5006 60.9356 11.9603 60.9356 12.5461C60.9356 13.0791 61.1168 13.5123 61.479 13.8459C61.846 14.1836 62.293 14.448 62.82 14.6392C63.3469 14.8345 64.0833 15.0603 65.029 15.3166C66.2005 15.6298 67.1509 15.9288 67.8802 16.2136C68.6095 16.5024 69.2282 16.9296 69.7363 17.495C70.2492 18.0564 70.5056 18.8029 70.5056 19.7346C70.5056 20.5929 70.2374 21.3435 69.701 21.9863C69.1647 22.629 68.4119 23.1253 67.4426 23.4752C66.4781 23.8251 65.3677 24 64.1115 24C62.8364 24 61.5967 23.7864 60.3922 23.3593C59.183 22.928 58.1408 22.3565 57.2657 21.6445L58.3314 19.8627C59.1595 20.5624 60.0887 21.1014 61.1191 21.4798C62.1542 21.8581 63.1587 22.0473 64.1327 22.0473C65.2901 22.0473 66.2052 21.852 66.878 21.4615C67.5461 21.0669 67.8802 20.5339 67.8802 19.8627C67.8802 19.3338 67.6991 18.8965 67.3368 18.5507C66.9698 18.209 66.511 17.9385 65.9606 17.7391C65.4054 17.5398 64.6573 17.3181 63.7163 17.074C62.5588 16.7729 61.6155 16.48 60.8862 16.1953C60.1569 15.9105 59.5406 15.4894 59.0371 14.9321C58.5337 14.3748 58.282 13.6384 58.282 12.7231C58.282 11.9217 58.5384 11.2138 59.0513 10.5995C59.5641 9.98525 60.284 9.51335 61.2109 9.18383C62.133 8.85431 63.2058 8.68955 64.4291 8.68955C65.4736 8.68955 66.4946 8.82176 67.492 9.08619C68.4942 9.35062 69.3834 9.70455 70.1598 10.148L69.1717 11.9908ZM84.3736 23.8719H82.094V22.2853C81.1154 23.3999 79.5839 23.9573 77.4996 23.9573C76.5915 23.9573 75.794 23.8068 75.1071 23.5057C74.4202 23.2047 73.8908 22.7897 73.5191 22.2609C73.1474 21.732 72.9616 21.1401 72.9616 20.4851C72.9616 19.4681 73.3968 18.6626 74.2672 18.0687C75.133 17.4788 76.3445 17.1757 77.9019 17.1594H82.0658V16.6224C82.0658 15.821 81.7811 15.2026 81.2118 14.7674C80.6425 14.3321 79.8121 14.1144 78.7205 14.1144C77.3984 14.1144 76.0504 14.5212 74.6766 15.3349L73.7097 13.9619C74.6507 13.433 75.5235 13.0506 76.328 12.8146C77.1279 12.5787 78.0806 12.4607 79.1863 12.4607C80.8237 12.4607 82.0893 12.8085 82.9833 13.5042C83.8772 14.1958 84.3312 15.164 84.3454 16.4088L84.3736 23.8719ZM77.9724 22.3036C79.0499 22.3036 79.965 22.0798 80.7178 21.6323C81.4659 21.1808 81.9152 20.5828 82.0658 19.8383V18.7033H78.2194C77.1796 18.7033 76.408 18.8396 75.9046 19.1121C75.4011 19.3847 75.1494 19.8139 75.1494 20.3997C75.1494 20.9855 75.4059 21.4493 75.9187 21.791C76.4268 22.1327 77.1114 22.3036 77.9724 22.3036ZM95.7785 12.4607C97.3171 12.4607 98.5262 12.8513 99.4061 13.6323C100.281 14.4094 100.719 15.4854 100.719 16.8604V23.8719H98.411V17.3974C98.411 16.4373 98.1004 15.6888 97.4794 15.1518C96.8583 14.6189 96.002 14.3524 94.9104 14.3524C93.7389 14.3646 92.7861 14.6901 92.0522 15.3288C91.3135 15.9634 90.8947 16.7872 90.7959 17.8002V23.8719H88.4881V12.5278H90.7959V14.9321C91.671 13.313 93.3319 12.4892 95.7785 12.4607ZM110.091 12.4607C112.124 12.4607 113.662 12.9794 114.707 14.0168C115.747 15.0542 116.266 16.4943 116.266 18.3371C116.266 18.626 116.259 18.8416 116.245 18.984H105.878C106.057 19.9969 106.548 20.8045 107.353 21.4066C108.153 22.0046 109.141 22.3036 110.317 22.3036C111.093 22.3036 111.816 22.1836 112.484 21.9436C113.156 21.6995 113.74 21.3557 114.234 20.9123L115.497 22.0473C114.853 22.6494 114.076 23.1152 113.168 23.4447C112.26 23.7742 111.251 23.939 110.141 23.939C108.851 23.939 107.706 23.699 106.704 23.2189C105.706 22.7389 104.93 22.0636 104.375 21.193C103.819 20.3183 103.542 19.3237 103.542 18.209C103.542 17.0943 103.819 16.1058 104.375 15.2433C104.93 14.3768 105.704 13.6974 106.696 13.2052C107.689 12.7089 108.821 12.4607 110.091 12.4607ZM105.85 17.4401H114.184C114.119 16.4109 113.721 15.5993 112.992 15.0053C112.267 14.4114 111.31 14.1144 110.119 14.1144C108.962 14.1144 107.997 14.4155 107.226 15.0175C106.459 15.6156 106 16.4231 105.85 17.4401ZM136.359 12.4607C137.865 12.4607 139.046 12.8553 139.902 13.6445C140.763 14.4297 141.194 15.5017 141.194 16.8604V23.8719H138.865V17.3974C138.865 16.4373 138.561 15.6868 137.954 15.1457C137.352 14.6006 136.521 14.328 135.463 14.328C134.225 14.3565 133.251 14.7348 132.541 15.463C131.826 16.1953 131.468 17.133 131.468 18.2761V23.8719H129.139V17.3974C129.139 16.4373 128.843 15.6868 128.25 15.1457C127.653 14.6006 126.817 14.328 125.745 14.328C124.503 14.3565 123.522 14.7348 122.802 15.463C122.082 16.1953 121.722 17.133 121.722 18.2761V23.8719H119.421V12.5278H121.722V14.9077C122.583 13.3049 124.213 12.4892 126.613 12.4607C127.817 12.4607 128.822 12.7109 129.626 13.2113C130.426 13.7117 130.967 14.4134 131.25 15.3166C132.059 13.4411 133.762 12.4892 136.359 12.4607ZM155.605 23.8719H153.325V22.2853C152.347 23.3999 150.815 23.9573 148.731 23.9573C147.823 23.9573 147.025 23.8068 146.338 23.5057C145.652 23.2047 145.122 22.7897 144.751 22.2609C144.379 21.732 144.193 21.1401 144.193 20.4851C144.193 19.4681 144.628 18.6626 145.499 18.0687C146.364 17.4788 147.576 17.1757 149.133 17.1594H153.297V16.6224C153.297 15.821 153.013 15.2026 152.443 14.7674C151.874 14.3321 151.043 14.1144 149.952 14.1144C148.625 14.1144 147.277 14.5212 145.908 15.3349L144.941 13.9619C145.882 13.433 146.753 13.0506 147.552 12.8146C148.357 12.5787 149.312 12.4607 150.418 12.4607C152.055 12.4607 153.321 12.8085 154.215 13.5042C155.109 14.1958 155.563 15.164 155.577 16.4088L155.605 23.8719ZM149.204 22.3036C150.281 22.3036 151.194 22.0798 151.942 21.6323C152.695 21.1808 153.147 20.5828 153.297 19.8383V18.7033H149.451C148.411 18.7033 147.639 18.8396 147.136 19.1121C146.633 19.3847 146.381 19.8139 146.381 20.3997C146.381 20.9855 146.635 21.4493 147.143 21.791C147.656 22.1327 148.343 22.3036 149.204 22.3036ZM162.027 14.9748C162.455 14.1571 163.067 13.5388 163.862 13.1198C164.657 12.6967 165.601 12.477 166.692 12.4607V14.3951C165.351 14.3504 164.267 14.6494 163.439 15.2921C162.615 15.9349 162.145 16.8014 162.027 17.8917V23.8719H159.72V12.5278H162.027V14.9748ZM175.62 21.5774L176.241 23.1213C175.23 23.6786 174.204 23.9573 173.164 23.9573C172.124 23.9573 171.28 23.6888 170.63 23.1518C169.986 22.6148 169.664 21.8032 169.664 20.717V14.4378H167.807V12.9123H169.664V9.86728H172V12.9123H176.015V14.4378H172V20.357C172 20.9835 172.131 21.433 172.395 21.7056C172.658 21.9781 173.056 22.1144 173.587 22.1144C174.213 22.1144 174.891 21.9354 175.62 21.5774Z" fill="#223256"/>
<path d="M37.8039 18.8596C37.6468 18.6593 37.408 18.5236 37.14 18.4821C36.8719 18.4406 36.5966 18.4969 36.3746 18.6385C35.0222 19.5045 33.4355 20.0247 31.7823 20.144C31.8131 18.4687 31.3868 16.8123 30.5409 15.3207L30.539 15.3181C32.0824 14.7049 33.4445 13.7734 34.5158 12.5985C34.6021 12.5049 34.6671 12.3968 34.7071 12.2805C34.747 12.1642 34.7611 12.0419 34.7485 11.9206C34.7359 11.7994 34.6969 11.6816 34.6338 11.574C34.5706 11.4663 34.4845 11.371 34.3804 11.2935C34.2763 11.216 34.1562 11.1578 34.0271 11.1222C33.898 11.0866 33.7624 11.0744 33.628 11.0863C33.4937 11.0981 33.3632 11.1337 33.2442 11.1911C33.1251 11.2486 33.0198 11.3266 32.9343 11.4208C31.9747 12.4716 30.7314 13.2819 29.3241 13.7736C28.6733 13.1354 27.914 12.5948 27.0747 12.172C26.4317 11.8469 25.7549 11.5793 25.0542 11.373H25.0523C23.2212 10.8562 21.3098 10.6081 19.3914 10.6382C14.7474 10.6382 11.3149 11.7936 9.25514 13.9811L9.25441 13.982C9.20395 13.9568 9.15122 13.9354 9.09678 13.9182C7.51646 13.4446 6.11598 12.579 5.05579 11.4207C4.97017 11.3267 4.86483 11.2488 4.74582 11.1916C4.6268 11.1344 4.49644 11.0989 4.3622 11.0872C4.22797 11.0755 4.09249 11.0878 3.96353 11.1235C3.83458 11.1591 3.71467 11.2173 3.61069 11.2947C3.50671 11.3722 3.4207 11.4674 3.35757 11.5749C3.29444 11.6824 3.25545 11.8001 3.24282 11.9212C3.23019 12.0424 3.24418 12.1645 3.28397 12.2808C3.32377 12.397 3.3886 12.505 3.47474 12.5986C4.69874 13.9393 6.29731 14.9609 8.10535 15.558L8.10159 15.5639C7.34698 17.0042 6.96968 18.5818 6.99887 20.1746C5.07082 20.181 3.1887 19.644 1.61549 18.6385C1.39343 18.4975 1.11843 18.4417 0.850836 18.4834C0.583244 18.5251 0.344912 18.6609 0.188137 18.8609C0.0313616 19.0609 -0.0310521 19.3088 0.0145918 19.5503C0.0602356 19.7918 0.210209 20.0071 0.431603 20.1489C2.34847 21.3716 4.63834 22.0284 6.98603 22.0287C7.02906 22.0287 7.07193 22.0281 7.11488 22.0277C7.30597 23.4686 7.74698 24.8734 8.42178 26.1907C8.45174 26.2498 8.4817 26.3089 8.51351 26.3681L8.51602 26.3723C8.42252 26.3782 8.33036 26.3956 8.24217 26.4242C7.53093 26.6662 6.77041 26.7679 6.01192 26.7223C5.25343 26.6767 4.51461 26.4849 3.84527 26.1598C3.72664 26.1023 3.59662 26.0665 3.46265 26.0544C3.32867 26.0423 3.19336 26.0541 3.06444 26.0891C2.93552 26.1242 2.81552 26.1818 2.71128 26.2587C2.60704 26.3356 2.52061 26.4302 2.45692 26.5372C2.39323 26.6442 2.35353 26.7615 2.34009 26.8824C2.32665 27.0032 2.33973 27.1253 2.37858 27.2416C2.41743 27.3579 2.4813 27.4661 2.56653 27.5602C2.65176 27.6542 2.75668 27.7322 2.87532 27.7896C3.85209 28.2616 4.93354 28.5304 6.04044 28.5765C6.15032 28.5808 6.25991 28.5829 6.36919 28.5829C7.25554 28.583 8.13458 28.4383 8.96382 28.156C9.15031 28.0926 9.31213 27.9814 9.4293 27.836C9.43736 27.8476 9.44608 27.8589 9.45542 27.8698C11.7157 30.9813 15.3279 32.9999 19.3914 32.9999C21.3213 32.9668 23.2133 32.5104 24.9039 31.6701C26.5945 30.8299 28.0331 29.6311 29.0952 28.1772L29.0959 28.1762C29.9047 28.4446 30.7595 28.5822 31.6212 28.5829C31.7306 28.5829 31.8402 28.5808 31.9502 28.5765C33.057 28.5304 34.1383 28.2616 35.115 27.7898C35.2336 27.7324 35.3386 27.6544 35.4238 27.5604C35.5091 27.4664 35.573 27.3581 35.6119 27.2418C35.6508 27.1255 35.6639 27.0035 35.6505 26.8826C35.6371 26.7617 35.5974 26.6445 35.5337 26.5374C35.4701 26.4304 35.3836 26.3357 35.2794 26.2588C35.1752 26.1819 35.0552 26.1242 34.9263 26.0892C34.7973 26.0541 34.662 26.0423 34.528 26.0543C34.3941 26.0664 34.264 26.1022 34.1454 26.1597C33.44 26.5005 32.6591 26.6948 31.8597 26.7282C31.2891 26.7504 30.7183 26.6888 30.1695 26.546C30.9551 25.1232 31.4621 23.5886 31.6682 22.0099L31.6685 22.0061C33.7865 21.8992 35.8282 21.2555 37.5589 20.1489C37.7809 20.0072 37.9314 19.7918 37.9773 19.55C38.0233 19.3082 37.9609 19.0599 37.8039 18.8596ZM19.3914 31.1502C15.9065 31.1502 12.8187 29.3293 10.9423 26.5438C10.5691 25.987 10.249 25.4027 9.98541 24.7971C9.36032 23.3552 9.04203 21.82 9.04719 20.2718C9.04719 15.1078 12.5284 12.4895 19.3914 12.4895C20.7335 12.4753 22.073 12.5995 23.3839 12.8595C24.1305 13.0115 24.8564 13.2369 25.5485 13.5318C28.3312 14.7396 29.7337 16.993 29.7337 20.2718C29.7337 26.2701 25.0935 31.1502 19.3914 31.1502Z" fill="url(#paint0_linear_142_183363)"/>
<path d="M11.9385 10.189C12.2713 10.1891 12.6013 10.1341 12.9122 10.0268C14.9105 9.3902 17.0196 9.08349 19.1385 9.12137C21.2574 9.0835 23.3666 9.3902 25.365 10.0268C25.7711 10.1653 26.2081 10.2145 26.6395 10.1702C27.071 10.1259 27.4845 9.98935 27.8457 9.77199C28.207 9.55464 28.5056 9.26269 28.7167 8.92039C28.9278 8.57809 29.0454 8.19531 29.0596 7.80381C29.0691 7.54003 29.0317 7.27658 28.9491 7.0234C28.4824 5.54788 27.7341 4.15709 26.7376 2.91354C25.8336 1.77815 24.6733 0.828266 23.3332 0.126347C23.191 0.0542482 23.0319 0.0137531 22.869 0.00822049C22.706 0.00268791 22.544 0.0322769 22.3962 0.094534C22.2485 0.156791 22.1193 0.249923 22.0195 0.366205C21.9196 0.482486 21.8519 0.618568 21.822 0.763165C21.5299 2.17367 20.4044 3.19902 19.148 3.19902C17.8877 3.19902 16.7623 2.17198 16.4721 0.756442C16.4423 0.611909 16.3749 0.475844 16.2752 0.359522C16.1756 0.2432 16.0467 0.149968 15.8991 0.0875496C15.7516 0.0251313 15.5897 -0.00467703 15.4268 0.000595355C15.264 0.00586775 15.1049 0.0460686 14.9627 0.117867C12.3748 1.42535 10.3224 3.94227 9.32806 7.0234C9.18321 7.46553 9.17872 7.93545 9.3151 8.37976C9.45148 8.82408 9.72327 9.22498 10.0996 9.53694C10.5994 9.95576 11.2563 10.1887 11.9385 10.189ZM11.298 7.54025C11.8912 5.52906 13.1492 3.72847 14.9046 2.37805C15.2543 3.1429 15.8401 3.80113 16.5923 4.27453C17.3445 4.74794 18.2315 5.01663 19.148 5.04868C20.065 5.02563 20.9547 4.76204 21.7083 4.29015C22.4618 3.81825 23.0467 3.1585 23.3912 2.39157C25.1374 3.74087 26.3891 5.53607 26.981 7.54025C27.02 7.65205 27.0223 7.77162 26.9878 7.88461C26.9532 7.99759 26.8832 8.09916 26.7862 8.17711C26.6958 8.25574 26.582 8.30895 26.4586 8.33024C26.3352 8.35153 26.2077 8.33999 26.0914 8.29703C23.8611 7.58066 21.5057 7.23331 19.1385 7.27168C16.7714 7.23347 14.416 7.58082 12.1856 8.29703C12.0693 8.33972 11.9419 8.35111 11.8186 8.32983C11.6953 8.30855 11.5815 8.2555 11.4909 8.17711C11.3939 8.09919 11.324 7.99754 11.2897 7.8845C11.2555 7.77145 11.2584 7.65185 11.298 7.54025Z" fill="#4A6CF7"/>
<defs>
<linearGradient id="paint0_linear_142_183363" x1="18.996" y1="10.6357" x2="18.996" y2="32.9999" gradientUnits="userSpaceOnUse">
<stop stop-color="#4A6CF7"/>
<stop offset="1" stop-color="#13C296"/>
</linearGradient>
</defs>
</svg>
